<svg version="1.1" viewBox="0.0 0.0 197.48556430446195 216.06036745406823" fill="none" stroke="none" stroke-linecap="square" stroke-miterlimit="10" xmlns:xlink="http://www.w3.org/1999/xlink" xmlns="http://www.w3.org/2000/svg"><clipPath id="p.0"><path d="m0 0l197.48557 0l0 216.06036l-197.48557 0l0 -216.06036z" clip-rule="nonzero"/></clipPath><g clip-path="url(#p.0)"><path fill="#000000" fill-opacity="0.0" d="m0 0l197.48557 0l0 216.06036l-197.48557 0z" fill-rule="evenodd"/><path fill="#20124d" d="m5.5905514 36.03737l0 0c0 -17.244385 13.979336 -31.22372 31.223722 -31.22372l124.89114 0l0 0c8.281052 0 16.222916 3.2896328 22.078506 9.145216c5.8555756 5.855583 9.145218 13.797461 9.145218 22.078505l0 145.26909c0 17.244385 -13.97934 31.223724 -31.223724 31.223724l-124.89114 0c-17.244387 0 -31.223722 -13.97934 -31.223722 -31.223724z" fill-rule="evenodd"/><path stroke="#ffffff" stroke-width="1.0" stroke-linejoin="round" stroke-linecap="butt" d="m5.5905514 36.03737l0 0c0 -17.244385 13.979336 -31.22372 31.223722 -31.22372l124.89114 0l0 0c8.281052 0 16.222916 3.2896328 22.078506 9.145216c5.8555756 5.855583 9.145218 13.797461 9.145218 22.078505l0 145.26909c0 17.244385 -13.97934 31.223724 -31.223724 31.223724l-124.89114 0c-17.244387 0 -31.223722 -13.97934 -31.223722 -31.223724z" fill-rule="evenodd"/><path fill="#ffffff" d="m94.17 125.15316l-16.46875 0q-0.234375 3.8593826 -1.296875 6.6250076q-1.046875 2.75 -2.859375 4.5q-1.828125 1.765625 -4.40625 2.59375q-2.578125 0.8125 -5.796871 0.8125q-2.40625 0 -4.375 -0.546875q-1.953125 -0.5625 -3.53125 -1.734375q-1.46875 -1.0625 -2.609375 -2.640625q-1.140625 -1.578125 -1.96875 -3.640625q-1.171875 -2.984375 -1.734375 -7.0000076q-0.546875 -4.015625 -0.546875 -9.109375l0 -11.59375q0 -3.75 0.34375 -7.0q0.359375 -3.265625 1.125 -5.953125q1.0 -3.453125 2.65625 -6.0625q1.671875 -2.609375 4.078125 -4.015625q1.40625 -0.828125 3.078125 -1.234375q1.671875 -0.40625 3.609375 -0.40625q3.6249962 0 6.234371 0.96875q2.609375 0.96875 4.359375 2.84375q1.703125 1.921875 2.609375 4.796875q0.90625 2.875 1.140625 6.6875l16.40625 0q-0.578125 -6.6875 -2.8125 -12.015625q-2.21875 -5.328125 -6.09375 -9.03125q-3.859375 -3.6875 -9.34375 -5.671875q-5.46875 -2.0 -12.499996 -2.0q-4.75 0 -8.890625 1.203125q-4.125 1.203125 -7.578125 3.421875q-3.875 2.640625 -6.921875 6.453125q-3.046875 3.8125 -4.921875 8.671875q-1.640625 3.984375 -2.46875 8.640625q-0.8125019 4.65625 -0.8125019 9.8125l0 11.484375q0 5.515625 0.9062519 10.4375q0.921875 4.9218826 2.609375 9.015633q1.765625 4.109375 4.3125 7.515625q2.546875 3.390625 5.828125 5.78125q3.578125 2.578125 8.0625 3.96875q4.484375 1.375 9.75 1.375q6.687496 0 12.187496 -1.96875q5.515625 -1.96875 9.5 -5.59375q3.984375 -3.640625 6.34375 -8.796875q2.375 -5.15625 2.796875 -11.593758zm75.46484 -45.171875l0 -13.421875l-68.796875 0l0 13.421875l25.96875 0l0 71.89063l16.515625 0l0 -71.89063l26.3125 0z" fill-rule="nonzero"/></g></svg>